<?xml version="1.0" encoding="UTF-8" standalone="no"?>
<svg
   xmlns:dc="http://purl.org/dc/elements/1.1/"
   xmlns:cc="http://creativecommons.org/ns#"
   xmlns:rdf="http://www.w3.org/1999/02/22-rdf-syntax-ns#"
   xmlns:svg="http://www.w3.org/2000/svg"
   xmlns="http://www.w3.org/2000/svg"
   id="svg821"
   version="1.1"
   viewBox="0 0 52.652104 14.287501"
   height="54"
   width="199">
  <defs
     id="defs815" />
  <metadata
     id="metadata818">
    <rdf:RDF>
      <cc:Work
         rdf:about="">
        <dc:format>image/svg+xml</dc:format>
        <dc:type
           rdf:resource="http://purl.org/dc/dcmitype/StillImage" />
        <dc:title></dc:title>
      </cc:Work>
    </rdf:RDF>
  </metadata>
  <g
     transform="translate(0,-282.71248)"
     id="layer1">
    <path
       id="path5080"
       d="m 22.377031,296.82922 c -1.329934,-0.1779 -2.349389,-0.9696 -2.848905,-2.21248 -0.353069,-0.87849 -0.426704,-2.27422 -0.173005,-3.27927 0.282436,-1.11891 0.908186,-1.93674 1.840252,-2.40516 0.483431,-0.24296 0.880235,-0.34809 1.487959,-0.39422 0.911142,-0.0692 1.801331,0.13522 2.456885,0.5641 0.868823,0.56839 1.411854,1.44121 1.61146,2.59009 0.08435,0.48555 0.09523,1.40784 0.02244,1.90305 -0.270201,1.83809 -1.473733,3.0515 -3.218922,3.24533 -0.283307,0.0315 -0.902351,0.0254 -1.178157,-0.0115 z m 1.081423,-1.75333 c 0.395652,-0.10964 0.724598,-0.38561 0.918954,-0.77095 0.357887,-0.70956 0.403481,-2.17034 0.09295,-2.97823 -0.259328,-0.67467 -0.723281,-1.02908 -1.386084,-1.05885 -0.782723,-0.0352 -1.339336,0.39607 -1.574917,1.22014 -0.166897,0.5838 -0.201799,1.49796 -0.08099,2.12119 0.200299,1.03328 0.797367,1.57156 1.686374,1.52036 0.104164,-0.006 0.258828,-0.0302 0.343705,-0.0536 z M 0.59409834,292.74601 v -4.01031 l 3.40291126,-0.005 3.402911,-0.005 0.0061,-0.86014 c 0.0038,-0.52786 -0.0028,-0.93073 -0.01709,-1.04291 -0.112173,-0.88209 -0.705452,-1.6228 -1.530554,-1.9109 -0.399692,-0.13957 -0.824181,-0.16992 -1.227394,-0.0877 -0.474842,0.0968 -0.811871,0.27949 -1.167825,0.63313 -0.340372,0.33818 -0.508052,0.62909 -0.637947,1.10682 -0.03766,0.13849 -0.04547,0.24523 -0.05396,0.73716 l -0.0099,0.57521 h -0.720151 -0.720155 l 0.010013,-0.66123 c 0.011115,-0.73413 0.02906,-0.86594 0.1793517,-1.31708 0.5443593,-1.63406 2.1469793,-2.69706 3.8578393,-2.55887 0.674538,0.0544 1.257621,0.2531 1.794365,0.61123 0.886314,0.59136 1.447829,1.45239 1.648776,2.52822 0.01694,0.0906 0.03044,0.51016 0.03843,1.19344 l 0.01233,1.05367 0.360181,0.006 0.360182,0.006 v 4.00987 4.00986 H 5.0883016 0.59409244 Z m 4.69459126,2.3203 c 0.13621,-0.0464 0.261791,-0.18958 0.292698,-0.33369 0.01385,-0.0645 0.02317,-0.41272 0.02343,-0.87493 l 4.33e-4,-0.76769 0.144722,-0.0684 c 0.234713,-0.11103 0.482154,-0.34594 0.623103,-0.59158 0.02507,-0.0437 0.06981,-0.14658 0.09941,-0.22864 0.274121,-0.75993 -0.120221,-1.59214 -0.889587,-1.87734 -0.152898,-0.0567 -0.222444,-0.0695 -0.425408,-0.0782 -0.296531,-0.0128 -0.471627,0.0233 -0.735775,0.15163 -0.14696,0.0714 -0.218715,0.1248 -0.366168,0.27252 -0.429963,0.43075 -0.556676,1.0094 -0.344633,1.57383 0.135106,0.35962 0.485538,0.70804 0.84337,0.83851 l 0.125472,0.0457 v 0.74867 c 0,0.45043 0.0092,0.79141 0.023,0.85593 0.04136,0.19283 0.238085,0.36036 0.430116,0.36624 0.03042,7.3e-4 0.10054,-0.0137 0.155831,-0.0325 z m 5.6700424,-2.37412 v -4.02113 h 1.010249 1.01025 l 0.01015,0.0484 c 0.0055,0.0267 0.02168,0.22982 0.03578,0.45157 0.0141,0.22175 0.0273,0.40319 0.02933,0.40319 0.002,0 0.109487,-0.10441 0.238795,-0.23202 0.428179,-0.42256 0.871045,-0.65404 1.471555,-0.76915 0.282918,-0.0542 0.913935,-0.0545 1.213724,-5e-4 0.723924,0.13038 1.219371,0.47436 1.535652,1.06617 0.156127,0.29213 0.253195,0.59152 0.331165,1.0214 0.04631,0.25537 0.04687,0.28812 0.0536,3.15563 l 0.0068,2.89758 H 16.829869 15.753964 V 294.003 c 0,-3.00244 0.005,-2.88866 -0.139658,-3.19731 -0.121348,-0.25896 -0.309197,-0.40445 -0.638986,-0.49491 -0.194042,-0.0532 -0.747215,-0.0528 -0.941627,7.2e-4 -0.334111,0.092 -0.649452,0.31767 -0.837493,0.59927 l -0.08715,0.1305 v 2.83601 2.83599 h -1.07517 -1.075169 z m 17.138201,0 v -4.02113 h 1.018074 1.018071 l 0.02641,0.42469 c 0.01452,0.23358 0.03055,0.43758 0.03559,0.45334 0.0056,0.0174 0.0736,-0.0398 0.173468,-0.14597 0.57739,-0.61377 1.402116,-0.92381 2.325993,-0.87442 1.072581,0.0574 1.743758,0.5056 2.096682,1.4003 0.148023,0.37526 0.219446,0.75236 0.251349,1.3271 0.01135,0.20442 0.02081,1.51592 0.02104,2.91444 l 4.07e-4,2.54278 h -1.07517 -1.07517 l -1.7e-5,-2.56429 c -1.3e-5,-1.57918 -0.0085,-2.65323 -0.02197,-2.79581 -0.05093,-0.53709 -0.240085,-0.84679 -0.601604,-0.98498 -0.372138,-0.14227 -0.930396,-0.14025 -1.29811,0.004 -0.248098,0.0978 -0.498488,0.30874 -0.672363,0.56643 l -0.07235,0.10723 v 2.83336 2.83337 h -1.075169 -1.07517 z m 8.687369,0 v -4.02113 h 1.085922 1.085921 v 4.02113 4.02113 h -1.085921 -1.085922 z m 3.935121,0 v -4.02113 h 1.010659 c 0.958913,0 1.010659,0.002 1.010659,0.0387 0,0.0566 0.0409,0.59877 0.05479,0.72641 l 0.0119,0.10928 0.208563,-0.20656 c 0.514307,-0.50935 1.130162,-0.76876 1.922527,-0.80976 1.033824,-0.0534 1.796657,0.30705 2.222442,1.05044 0.04572,0.0799 0.08833,0.14459 0.09468,0.14392 0.0064,-7.4e-4 0.05993,-0.0643 0.119064,-0.14145 0.315584,-0.41154 0.769032,-0.73518 1.257948,-0.89785 0.356447,-0.11859 0.574064,-0.14993 1.042914,-0.15019 0.446256,-2.6e-4 0.663426,0.0282 0.981324,0.12841 0.91173,0.28755 1.433543,1.03732 1.565586,2.24953 0.01481,0.1359 0.02275,1.18504 0.02275,3.0051 v 2.79628 h -1.074543 -1.074552 l -0.0064,-2.77931 -0.0064,-2.77931 -0.04858,-0.15781 c -0.122354,-0.39741 -0.285394,-0.56814 -0.649475,-0.68016 -0.176588,-0.0544 -0.634485,-0.0678 -0.838633,-0.0246 -0.336125,0.0711 -0.652858,0.2914 -0.836221,0.58173 -0.166978,0.2644 -0.152933,-0.0174 -0.152933,3.06815 v 2.77131 h -1.074546 -1.074547 l -0.0063,-2.75781 c -0.0062,-2.74974 -0.0064,-2.75829 -0.05258,-2.92087 -0.129596,-0.45607 -0.335066,-0.65144 -0.779468,-0.74118 -0.263371,-0.0532 -0.65974,-0.0349 -0.895655,0.0413 -0.295503,0.0955 -0.531578,0.27564 -0.714983,0.54572 l -0.08971,0.1321 v 2.85038 2.85038 h -1.075139 -1.075169 z m -3.19517,-5.01935 c -0.375086,-0.0855 -0.698271,-0.37554 -0.806728,-0.72402 -0.04941,-0.15874 -0.05501,-0.51237 -0.01075,-0.67861 0.08952,-0.33623 0.343552,-0.59907 0.697026,-0.7212 0.125434,-0.0434 0.185193,-0.0497 0.466417,-0.0497 0.281224,0 0.340984,0.007 0.466417,0.0497 0.406913,0.1406 0.670876,0.45739 0.728449,0.87423 0.07677,0.55585 -0.214057,1.03885 -0.732543,1.21658 -0.178201,0.0611 -0.608124,0.0786 -0.808293,0.0331 z"
       style="fill:#ffffff;fill-opacity:1;stroke-width:0.02150339" />
  </g>
</svg>
